PathFileType	4	(X/Y/Z)	TVC_32_BWA_06_walk_RCNL2025.trc
DataRate	CameraRate	NumFrames	NumMarkers	Units	OrigDataRate	OrigDataStartFrame	OrigNumFrames
100	100	4	27	mm	100	145	386
Frame#	Time	R_Shoulder			L_Shoulder			C7			J_Notch			R_Elbow			L_Elbow			R_Wrist			L_Wrist			R_Asis			L_Asis			R_Psis			L_Psis			Sacral			Thoracic			Sternum			R_Thigh_Lateral			R_Knee_Lateral			R_Shank_Lateral			R_Ankle_Lateral			R_Heel			R_Toe			L_Thigh_Lateral			L_Knee_Lateral			L_Shank_Lateral			L_Ankle_Lateral			L_Heel			L_Toe		
		X1	Y1	Z1	X2	Y2	Z2	X3	Y3	Z3	X4	Y4	Z4	X5	Y5	Z5	X6	Y6	Z6	X7	Y7	Z7	X8	Y8	Z8	X9	Y9	Z9	X10	Y10	Z10	X11	Y11	Z11	X12	Y12	Z12	X13	Y13	Z13	X14	Y14	Z14	X15	Y15	Z15	X16	Y16	Z16	X17	Y17	Z17	X18	Y18	Z18	X19	Y19	Z19	X20	Y20	Z20	X21	Y21	Z21	X22	Y22	Z22	X23	Y23	Z23	X24	Y24	Z24	X25	Y25	Z25	X26	Y26	Z26	X27	Y27	Z27
145	1.44000000	-680.670715	1451.371460	532.334229	-754.380859	1436.579590	167.119843	-764.263306	1498.565552	360.261505	-607.515137	1393.769165	340.742096	-562.767883	1136.408325	664.969604	-908.896545	1143.593628	89.369568	-379.014465	938.111298	610.905792	-894.576752	869.843262	100.740509	-686.839172	996.546631	508.318695	-685.611328	1005.688232	217.692001	-876.050354	1006.996277	413.322510	-872.972351	1000.409790	312.435669	-874.511353	1003.703033	362.879089	-851.521729	1244.131470	369.107697	-592.559326	1246.969604	341.979767	-804.675537	616.941467	546.265381	-788.872742	480.903412	475.441101	-875.353577	286.064087	520.557556	-932.131653	81.087189	435.172241	-993.618347	59.233471	373.623505	-793.448730	42.187210	430.793762	-632.710632	681.956970	133.638046	-542.344910	536.188049	185.866165	-522.300415	378.469910	114.158035	-397.041412	122.748451	159.636612	-454.255157	83.305824	209.510727	-254.421188	139.197845	185.611282
146	1.45000000	-674.598511	1450.340698	530.750671	-747.946228	1434.946899	165.693222	-757.832825	1497.008301	358.568237	-600.642883	1392.833252	339.304169	-554.582520	1136.371094	663.656738	-902.507263	1141.773071	89.395042	-368.579285	940.294006	609.060913	-888.075012	868.215179	101.602192	-679.254272	995.383789	507.945435	-675.999939	1003.890625	217.330383	-867.750854	1005.185669	411.592224	-863.843567	998.440125	310.785004	-865.797211	1001.812897	361.188614	-843.867859	1242.078491	367.334167	-585.008118	1246.136963	340.899445	-799.344910	616.001526	545.890808	-784.154724	479.654694	475.208221	-872.491516	285.797668	520.276367	-931.757874	81.354759	435.058014	-993.482239	60.036076	373.495087	-793.585754	42.054459	430.698883	-622.324646	680.183594	133.590179	-532.687012	534.305969	186.100418	-512.622925	376.414886	114.541214	-390.139832	119.647484	161.067612	-448.331970	80.483643	209.858124	-247.726227	135.059341	188.851456
147	1.46000000	-668.428040	1449.463745	529.073120	-741.375854	1433.355957	164.199173	-751.291016	1495.513062	356.776794	-593.621338	1392.004639	337.797180	-546.538391	1136.386475	662.298157	-895.802002	1139.910278	89.328583	-358.489319	942.354553	607.277374	-881.115967	866.537750	102.256939	-671.540588	994.266724	507.458221	-666.195374	1002.190491	216.997574	-859.305359	1003.494934	409.782745	-854.539734	996.644043	309.046356	-856.922546	1000.069489	359.414551	-836.011719	1240.067139	365.530792	-577.266724	1245.431030	339.795380	-794.163635	615.162537	545.400574	-779.554932	478.458130	474.898376	-869.768311	285.660126	519.977295	-931.374329	81.743362	434.933960	-993.293457	60.986328	373.339935	-793.797974	41.903564	430.559113	-611.879089	678.465332	133.452286	-523.362793	532.235229	186.155502	-503.758331	374.051208	114.804840	-384.487579	116.074837	162.328491	-443.668304	77.276344	210.035889	-242.245575	130.215530	191.747421
148	1.47000000	-662.134888	1448.732544	527.305542	-734.639343	1431.801758	162.629913	-744.622925	1494.084106	354.892181	-586.441833	1391.280884	336.227020	-538.617126	1136.443848	660.907227	-888.783264	1138.017456	89.148582	-348.729355	944.268951	605.561096	-873.741058	864.803741	102.724239	-663.692139	993.185242	506.851166	-656.198059	1000.573242	216.670380	-850.712097	1001.928833	407.868500	-845.074524	995.020569	307.194183	-847.893311	998.474701	357.531342	-827.961853	1238.110107	363.675751	-569.332153	1244.844360	338.673798	-789.085205	614.444641	544.791931	-775.062317	477.332367	474.514954	-867.163025	285.669983	519.653931	-930.966675	82.278145	434.799530	-993.045898	62.113575	373.162628	-794.063843	41.745388	430.389191	-601.415771	676.776428	133.247269	-514.435791	529.939636	186.063126	-495.713409	371.386597	114.963020	-380.006775	112.100975	163.413025	-440.125427	73.761154	210.155426	-237.888260	124.763817	194.217316
